<?xml version="1.0" standalone="no"?>
<!DOCTYPE svg PUBLIC "-//W3C//DTD SVG 1.1//EN" "http://www.w3.org/Graphics/SVG/1.1/DTD/svg11.dtd" >
<svg xmlns="http://www.w3.org/2000/svg">
<metadata></metadata>
<defs>
<font id="lcd_solidregular" horiz-adv-x="1253" >
<font-face units-per-em="2048" ascent="1638" descent="-410" />
<missing-glyph horiz-adv-x="500" />
<glyph horiz-adv-x="0" />
<glyph unicode="&#xd;" />
<glyph unicode=" " />
<glyph unicode="!" d="M532 120v199q3 19 18 19h199q19 -3 19 -19v-199q0 -18 -19 -18h-199q-18 0 -18 18zM532 771v850q3 17 18 17h199q19 -3 19 -17v-850q0 -18 -19 -18h-199q-18 0 -18 18z" />
<glyph unicode="&#x22;" d="M325 1011v613q2 17 17 17h193q18 -3 18 -17v-613q0 -18 -18 -18h-193q-18 0 -17 18zM745 1011v613q2 17 17 17h193q18 -3 18 -17v-613q0 -18 -18 -18h-193q-18 0 -17 18z" />
<glyph unicode="#" d="M99 556v197q3 19 18 19h199v198h-199q-18 0 -18 19v197q3 19 18 19h199v416q3 17 18 17h198q19 -3 19 -17v-416h198v416q3 18 19 17h197q19 -3 20 -17v-416h197q19 -3 19 -19v-197q0 -19 -19 -19h-197v-198h197q19 -3 19 -19v-197q0 -19 -19 -19h-197v-416q0 -18 -20 -17 h-197q-19 0 -19 17v416h-198v-416q0 -18 -19 -17h-198q-18 0 -18 17v416h-199q-18 0 -18 19zM551 772h198v198h-198v-198z" />
<glyph unicode="$" d="M99 341v199q3 18 18 17h847v198h-630q-18 0 -18 19v197h-199q-18 0 -18 19v198q3 18 18 17h199v199q3 18 18 18h198v199q3 17 18 17h198q19 -3 19 -17v-199h414q18 -3 17 -18v-199q0 -18 -17 -17h-847v-198h630q19 -3 19 -19v-197h198q18 -3 17 -19v-198q0 -18 -17 -17 h-198v-199q0 -18 -19 -18h-197v-199q0 -18 -19 -17h-198q-18 0 -18 17v199h-415q-18 0 -18 18z" />
<glyph unicode="%" d="M101 344v197q3 19 17 19h199v198q3 19 18 19h197v197q3 18 19 18h198v199q3 18 19 17h197v198q3 19 18 19h199q18 -3 18 -19v-198q0 -18 -18 -17h-199v-199q0 -18 -18 -18h-197v-197q0 -19 -19 -19h-198v-198q0 -19 -19 -19h-197v-197q0 -18 -18 -18h-199q-18 0 -17 18z M101 1208v414q2 18 17 18h414q19 -1 19 -18v-414q0 -18 -19 -17h-414q-18 0 -17 17zM749 127v414q3 19 19 19h414q18 -3 18 -19v-414q0 -18 -18 -17h-414q-19 0 -19 17z" />
<glyph unicode="&#x26;" d="M99 345v413q3 18 18 17h198v199h-198q-18 0 -18 18v412q3 19 18 19h198v198q3 17 19 17h412q18 -3 18 -17v-198h199q18 -3 17 -19v-197q0 -18 -17 -18h-199v-197q0 -18 -18 -18h-197v-199h197q18 -1 18 -17v-198h199v198q1 18 17 17h198q18 -1 17 -17v-198q0 -18 -17 -17 h-198v-198h198q18 -3 17 -19v-197q0 -18 -17 -18h-198q-18 0 -17 18v197h-199v-197q0 -18 -18 -18h-412q-19 0 -19 18v197h-198q-18 0 -18 19zM334 345h412v198h-197q-18 0 -18 17v198h-197v-413zM334 992h197v197q3 18 18 18h197v197h-412v-412z" />
<glyph unicode="'" d="M323 1008v193q3 18 18 18h193v191h-193q-18 0 -18 18v193q3 17 18 17h402q18 -3 18 -17v-402q0 -18 -18 -18h-192v-193q0 -18 -17 -18h-193q-18 0 -18 18z" />
<glyph unicode="(" d="M319 556v632q3 19 17 19h199v197q3 19 19 19h198v199q3 18 19 18h199q18 -3 17 -18v-199q0 -19 -17 -19h-199v-197q0 -19 -19 -19h-198v-632h198q19 -3 19 -18v-199h199q18 -3 17 -19v-199q0 -18 -17 -17h-199q-19 0 -19 17v199h-198q-19 0 -19 19v199h-199q-18 0 -17 18 z" />
<glyph unicode=")" d="M317 121v199q3 19 18 19h199v199q3 18 19 18h199v633h-199q-19 0 -19 18v199h-199q-18 0 -18 19v199q3 17 18 17h199q19 -3 19 -17v-199h199q18 -3 17 -19v-199h199q18 -3 18 -18v-633q0 -18 -18 -18h-199v-199q0 -19 -17 -19h-199v-199q0 -18 -19 -17h-199q-18 0 -18 17 z" />
<glyph unicode="*" d="M105 562v196q3 19 18 19h196v194h-196q-18 0 -18 19v196q3 18 18 18h196q18 -3 17 -18v-196h196v410q3 18 19 18h195q19 -3 19 -18v-410h196v196q3 18 18 18h196q18 -3 17 -18v-196q0 -19 -17 -19h-196v-194h196q18 -3 17 -19v-196q0 -18 -17 -18h-196q-18 0 -18 18v196 h-196v-410q0 -18 -19 -17h-195q-19 0 -19 17v410h-196v-196q0 -18 -17 -18h-196q-18 0 -18 18z" />
<glyph unicode="+" d="M105 774v196q3 18 18 17h411v411q2 18 17 18h197q18 -3 17 -18v-411h411q18 -3 18 -17v-196q0 -18 -18 -18h-411v-411q0 -18 -17 -17h-197q-18 0 -17 17v411h-411q-18 0 -18 18z" />
<glyph unicode="," d="M325 121v194q3 18 17 17h193v193h-193q-18 0 -17 18v193q2 17 17 17h404q18 -3 18 -17v-404q0 -18 -18 -17h-193v-194q0 -18 -18 -17h-193q-18 0 -17 17z" />
<glyph unicode="-" d="M98 775v199q3 18 18 18h1062q19 -3 19 -18v-199q0 -18 -19 -17h-1062q-18 0 -18 17z" />
<glyph unicode="." d="M323 123v395q3 17 18 17h395q18 -3 17 -17v-395q0 -18 -17 -18h-395q-18 0 -18 18z" />
<glyph unicode="/" d="M99 345v199q3 18 18 18h199v197q1 18 18 18h197v199q3 18 18 17h199v198q3 18 17 17h198v199q2 18 17 18h199q18 -3 18 -18v-199q0 -18 -18 -17h-199v-198q0 -18 -17 -17h-198v-199q0 -18 -17 -18h-199v-197q0 -18 -18 -18h-197v-199q0 -18 -18 -17h-199q-18 0 -18 17z " />
<glyph unicode="0" d="M101 341v1060q3 19 17 19h199v198q2 17 18 17h629q18 -3 18 -17v-198h199q18 -3 17 -19v-1060q0 -18 -17 -18h-199v-199q0 -18 -18 -17h-629q-18 0 -18 17v199h-199q-18 0 -17 18zM335 341h629v629h-197v-198q0 -18 -18 -17h-199v-199q0 -18 -18 -18h-197v-197zM335 772 h197v198q3 18 18 17h199v199q3 18 18 18h197v197h-629v-629z" />
<glyph unicode="1" d="M317 129v197q3 18 18 18h197v842h-197q-18 0 -18 19v196q3 19 18 19h197v196q3 19 18 19h198q18 -3 17 -19v-1272h198q18 -3 17 -18v-197q0 -18 -17 -18h-628q-18 0 -18 18z" />
<glyph unicode="2" d="M102 120v197q3 18 18 18h197v197q3 19 18 19h197v197q3 19 18 19h198v197q3 18 17 18h198v412h-628v-197q0 -18 -18 -18h-197q-18 0 -18 18v197q3 18 18 18h197v197q3 18 18 18h628q18 -3 17 -18v-197h198q19 -3 19 -18v-412q0 -18 -19 -18h-198v-197q0 -19 -17 -19h-198 v-197q0 -19 -17 -19h-198v-197h628q19 -3 19 -18v-197q0 -18 -19 -18h-1058q-18 0 -18 18z" />
<glyph unicode="3" d="M99 342v198q3 19 18 19h199q18 -3 18 -19v-198h630v414h-197q-19 0 -19 19v198h-198q-19 0 -19 17v199q3 18 19 18h198v197h-631q-18 0 -18 19v198q3 17 18 17h1064q18 -1 17 -17v-198q0 -19 -17 -19h-199v-197q0 -18 -18 -18h-197v-199h197q18 -3 18 -17v-198h199 q18 -3 17 -19v-414q0 -18 -17 -17h-199v-199q0 -18 -18 -18h-630q-18 0 -18 18v199h-199q-18 0 -18 17z" />
<glyph unicode="4" d="M99 556v414q3 19 18 19h199v197q3 18 18 18h198v199q3 18 18 17h198v199q3 18 19 18h197q19 -3 19 -18v-847h198q18 -3 17 -19v-197q0 -18 -17 -18h-198v-415q0 -18 -19 -18h-197q-19 0 -19 18v415h-631q-18 0 -18 18zM334 772h414v414h-198v-197q0 -19 -18 -19h-198 v-198z" />
<glyph unicode="5" d="M99 342v199q3 19 18 19h199q18 -3 18 -19v-199h631v632h-848q-18 0 -18 19v632q3 18 18 18h1065q19 -3 19 -18v-199q0 -18 -19 -17h-848v-199h631q19 -3 20 -19v-198h197q19 -3 19 -19v-632q0 -18 -19 -17h-197v-199q0 -18 -20 -18h-631q-18 0 -18 18v199h-199 q-18 0 -18 17z" />
<glyph unicode="6" d="M99 341v847q3 18 18 17h199v198q3 19 18 19h197v197q3 18 19 18h414q18 -1 18 -18v-197q0 -19 -18 -19h-414v-198q0 -18 -19 -17h-197v-199h630q18 -3 18 -18v-197h199q18 -3 17 -19v-414q0 -18 -17 -18h-199v-199q0 -18 -18 -17h-630q-18 0 -18 17v199h-199 q-18 0 -18 18zM334 341h630v414h-630v-414z" />
<glyph unicode="7" d="M102 1420v198q3 19 18 19h1061q18 -3 17 -19v-413q0 -18 -17 -17h-198v-198q0 -19 -19 -19h-197v-197q0 -18 -18 -18h-198v-629q0 -18 -17 -17h-198q-19 0 -19 17v629q3 18 19 18h198v197q3 19 17 19h198v198q3 18 18 17h197v198h-844q-18 0 -18 17z" />
<glyph unicode="8" d="M101 344v414q3 18 17 17h199v198h-199q-18 0 -17 17v414q3 19 17 19h199v198q2 17 18 17h629q18 -3 18 -17v-198h199q18 -3 17 -19v-414q0 -18 -17 -17h-199v-198h199q18 -3 17 -17v-414q0 -18 -17 -18h-199v-199q0 -18 -18 -17h-629q-18 0 -18 17v199h-199q-18 0 -17 18 zM335 344h629v414h-629v-414zM335 990h629v414h-629v-414z" />
<glyph unicode="9" d="M102 990v416q1 18 18 17h199v199q1 18 17 18h631q19 -3 19 -18v-199h197q19 -3 19 -17v-849q0 -18 -19 -17h-197v-199q0 -18 -19 -18h-198v-199q0 -18 -19 -17h-414q-18 0 -17 17v199q1 18 17 18h414v199q3 18 19 17h198v199h-631q-18 0 -17 18v199h-199q-18 0 -18 17z M336 990h631v416h-631v-416z" />
<glyph unicode=":" d="M316 347v412q3 18 18 18h412q18 -3 18 -18v-412q0 -18 -18 -18h-412q-18 0 -18 18zM316 990v413q3 17 18 17h412q18 -3 18 -17v-413q0 -18 -18 -17h-412q-18 0 -18 17z" />
<glyph unicode=";" d="M316 123v197q3 19 18 19h197v198h-197q-18 0 -18 17v198q3 19 18 19h414q18 -3 17 -19v-413q0 -19 -17 -19h-198v-197q0 -18 -19 -18h-197q-18 0 -18 18zM316 986v414q3 18 18 18h414q18 -3 17 -18v-414q0 -18 -17 -18h-414q-18 0 -18 18z" />
<glyph unicode="&#x3c;" d="M95 771v199q3 18 18 17h199v199q3 18 19 18h197v199q3 18 19 17h198v199q3 18 19 18h199q18 -1 17 -18v-199q0 -18 -17 -17h-199v-199q0 -18 -19 -18h-198v-199q0 -18 -19 -17h-197v-199h197q19 -3 19 -19v-198h198q19 -3 19 -19v-197h199q18 -3 17 -19v-199 q0 -18 -17 -18h-199q-19 0 -19 18v199h-198q-19 0 -19 19v197h-197q-19 0 -19 19v198h-199q-18 0 -18 19z" />
<glyph unicode="=" d="M98 563v198q3 19 18 19h1059q18 -3 17 -19v-198q0 -18 -17 -17h-1059q-18 0 -18 17zM98 995v197q3 18 18 18h1059q18 -3 17 -18v-197q0 -19 -17 -19h-1059q-18 0 -18 19z" />
<glyph unicode="&#x3e;" d="M98 118v201q3 18 18 17h200v199q3 19 18 19h198v199q3 18 19 18h199v200h-199q-19 0 -19 18v199h-198q-18 0 -18 19v199h-200q-18 0 -18 17v201q3 17 18 17h200q18 -3 18 -17v-201h198q19 -3 19 -17v-199h199q18 -3 18 -19v-199h200q18 -3 18 -18v-200q0 -18 -18 -18 h-200v-199q0 -19 -18 -19h-199v-199q0 -18 -19 -17h-198v-201q0 -18 -18 -17h-200q-18 0 -18 17z" />
<glyph unicode="?" d="M101 1210v199q3 18 17 17h199v199q3 18 18 18h632q19 -3 19 -18v-199h197q19 -3 19 -17v-416q0 -19 -19 -19h-197v-197q0 -19 -19 -19h-198v-198q0 -19 -19 -19h-197q-19 0 -19 19v198q3 19 19 19h197v197q3 19 19 19h198v416h-632v-199q0 -19 -18 -19h-199q-18 0 -17 19 zM534 126v199q3 17 19 17h197q19 -1 19 -17v-199q0 -18 -19 -18h-197q-19 0 -19 18z" />
<glyph unicode="@" d="M99 338v415q3 18 18 18h199v200q3 18 19 18h415q18 -3 18 -18v-633h200v1066h-633v-199q0 -18 -19 -17h-199q-18 0 -18 17v199q3 19 18 19h199v199q3 18 19 18h633q18 -3 18 -18v-199h199q18 -3 17 -19v-1066q0 -19 -17 -19h-199v-199q0 -18 -18 -18h-633q-19 0 -19 18 v199h-199q-18 0 -18 19zM335 338h199v415h-199v-415z" />
<glyph unicode="A" d="M102 123v1280q3 18 18 17h199v199q2 18 17 18h631q19 -3 19 -18v-199h197q18 -3 18 -17v-1280q0 -18 -18 -18h-197q-19 0 -19 18v415h-631v-415q0 -18 -17 -18h-199q-18 0 -18 18zM336 772h631v631h-631v-631z" />
<glyph unicode="B" d="M102 124v1495q3 18 18 18h847q18 -3 18 -18v-199h197q19 -3 19 -17v-414q0 -18 -19 -18h-197v-199h197q19 -3 19 -17v-414q0 -18 -19 -18h-197v-199q0 -17 -16 -17h-2h-847q-18 0 -18 17zM336 341h631v414h-631v-414zM336 989h631v414h-631v-414z" />
<glyph unicode="C" d="M102 339v1065q3 18 18 18h199v199q2 17 17 17h632q18 -3 18 -17v-199h199q18 -3 17 -18v-199q0 -18 -17 -17h-199q-18 0 -18 17v199h-632v-1065h632v199q3 18 18 18h199q18 -3 17 -18v-199q0 -18 -17 -17h-199v-199q0 -18 -18 -18h-632q-18 0 -17 18v199h-199 q-18 0 -18 17z" />
<glyph unicode="D" d="M104 124v1497q2 17 17 17h631q19 -3 19 -17v-199h197q19 -3 19 -18v-199h198q18 -3 17 -17v-631q0 -18 -17 -17h-198v-199q0 -18 -19 -18h-197v-199q0 -17 -17 -17h-2h-631q-18 0 -17 17zM338 341h414v199q3 18 19 17h197v631h-197q-19 0 -19 17v199h-414v-1063z" />
<glyph unicode="E" d="M102 126v1498q3 17 18 17h1065q18 -3 17 -17v-199q0 -18 -17 -18h-849v-415h632q18 -3 18 -18v-199q0 -18 -18 -17h-632v-416h849q18 -3 17 -17v-199q0 -18 -17 -18h-1065q-18 0 -18 18z" />
<glyph unicode="F" d="M94 124v1500q2 17 17 17h1065q19 -3 19 -17v-199q0 -18 -19 -18h-848v-415h632q19 -3 19 -19v-198q0 -19 -19 -19h-632v-632q0 -17 -16 -17h-2h-199q-18 0 -17 17z" />
<glyph unicode="G" d="M95 345v1061q3 18 18 17h199v199q1 18 17 18h629q18 -3 18 -18v-199h199q18 -1 17 -17v-198q0 -18 -17 -17h-199q-18 0 -18 17v198h-629v-1061h629v414h-414q-18 0 -17 18v197q3 18 17 18h631q18 -3 17 -18v-845q0 -18 -17 -18h-846q-18 0 -17 18v199h-199q-18 0 -18 17z " />
<glyph unicode="H" d="M105 124v1497q3 17 18 17h199q18 -3 17 -17v-631h631v631q3 17 17 17h2h197q18 -3 18 -17v-1497q0 -17 -16 -17h-2h-197q-19 0 -19 17v631h-631v-631q0 -17 -15 -17h-2h-199q-18 0 -18 17z" />
<glyph unicode="I" d="M317 126v199q3 18 18 17h199v1065h-199q-18 0 -18 18v199q3 17 18 17h632q18 -3 18 -17v-199q0 -18 -18 -18h-199v-1065h199q18 -3 18 -17v-199q0 -18 -18 -18h-632q-18 0 -18 18z" />
<glyph unicode="J" d="M102 344v197q3 18 18 18h199q18 -3 17 -18v-197h414v1060h-199q-18 0 -17 19v198q2 17 17 17h631q18 -3 18 -17v-198q0 -19 -18 -19h-199v-1060q0 -18 -18 -18h-197v-199q0 -17 -16 -17h-2h-414q-18 0 -17 17v199h-199q-18 0 -18 18z" />
<glyph unicode="K" d="M102 126v1495q3 17 18 17h199q18 -3 17 -17v-631h198v198q3 19 19 19h197v197q3 18 18 18h199v199q3 17 16 17h2h197q19 -3 19 -17v-199q0 -18 -19 -18h-197v-197q0 -19 -18 -19h-199v-198q0 -18 -18 -17h-197v-199h197q18 -3 18 -18v-197h199q18 -3 18 -19v-198h197 q19 -3 19 -17v-199q0 -18 -19 -18h-197q-18 0 -18 18v199h-199q-18 0 -18 17v198h-197q-19 0 -19 19v197h-198v-630q0 -18 -17 -18h-199q-18 0 -18 18z" />
<glyph unicode="L" d="M89 121v1500q3 17 18 17h199q18 -3 17 -17v-1283h850q18 -1 18 -18v-199q0 -17 -16 -17h-2h-1066q-18 0 -18 17z" />
<glyph unicode="M" d="M102 121v1498q3 18 18 18h199q18 -3 17 -18v-199h199q18 -3 18 -17v-199h199v199q3 18 17 17h199v199q3 18 18 18h199q18 -3 17 -18v-1498q0 -17 -15 -17h-2h-199q-18 0 -18 17v1065h-199v-415q0 -18 -17 -18h-199q-18 0 -18 18v415h-199v-1065q0 -17 -15 -17h-2h-199 q-18 0 -18 17z" />
<glyph unicode="N" d="M102 123v1501q3 17 18 17h199q19 -3 19 -17v-416h197q19 -3 19 -19v-199h199q18 -3 18 -17v-199h199v850q3 17 16 17h1h199q19 -3 19 -17v-1501q0 -18 -19 -18h-199q-18 0 -17 18v415h-199q-18 0 -18 19v199h-199q-19 0 -19 18v199h-197v-850q0 -18 -19 -18h-199 q-18 0 -18 18z" />
<glyph unicode="O" d="M101 341v1065q3 18 17 17h199v199q3 18 18 18h632q18 -3 18 -18v-199h198q18 -3 18 -17v-1065q0 -18 -18 -18h-198v-199q0 -17 -16 -17h-2h-632q-18 0 -18 17v199h-199q-18 0 -17 18zM335 341h632v1065h-632v-1065z" />
<glyph unicode="P" d="M101 121v1498q2 18 17 18h849q18 -3 18 -18v-199h198q18 -3 18 -17v-416q0 -18 -18 -17h-198v-199q0 -18 -18 -18h-632v-632q0 -17 -16 -17h-2h-199q-18 0 -17 17zM335 987h632v416h-632v-416z" />
<glyph unicode="Q" d="M101 344v1060q3 19 17 19h199v198q2 17 18 17h629q18 -3 18 -17v-198h199q18 -3 17 -19v-845q0 -18 -17 -18h-199v-197h199q18 -3 17 -18v-199q0 -17 -15 -17h-2h-199q-18 0 -18 17v199h-197v-199q0 -17 -16 -17h-2h-414q-18 0 -18 17v199h-199q-18 0 -17 18zM335 344 h414v197h-199q-18 0 -18 18v199q3 18 18 17h199q18 -3 18 -17v-199h197v845h-629v-1060z" />
<glyph unicode="R" d="M101 124v1497q2 17 17 17h847q19 -3 20 -17v-199h197q18 -3 18 -18v-414q0 -19 -18 -19h-197v-197q0 -19 -20 -19h-197v-198h197q19 -3 20 -17v-199h197q18 -3 18 -18v-199q0 -17 -16 -17h-2h-197q-19 0 -20 17v199h-197q-19 0 -19 18v199h-198q-18 0 -17 17v198h-199 v-631q0 -17 -16 -17h-2h-199q-18 0 -17 17zM335 990h630v414h-630v-414z" />
<glyph unicode="S" d="M99 124v199q3 18 18 18h848v415h-631q-18 0 -18 18v199h-199q-18 0 -18 17v416q3 18 18 17h199v199q3 18 18 18h848q18 -3 18 -18v-199q0 -18 -18 -17h-848v-416h631q18 -3 18 -17v-199h199q18 -3 18 -18v-415q0 -18 -18 -18h-199v-199q0 -17 -16 -17h-2h-848 q-18 0 -18 17z" />
<glyph unicode="T" d="M98 1426v199q3 18 18 18h1066q18 -3 18 -18v-199q0 -18 -18 -17h-415v-1283q0 -18 -19 -18h-198q-19 0 -19 18v1283h-415q-18 0 -18 17z" />
<glyph unicode="U" d="M98 342v1279q3 17 18 17h199q18 -3 17 -17v-1279h631v1279q3 17 16 17h1h198q19 -3 19 -17v-1279q0 -18 -19 -17h-198v-199q0 -18 -17 -18h-631q-18 0 -17 18v199h-199q-18 0 -18 17z" />
<glyph unicode="V" d="M101 557v1061q2 17 17 17h198q19 -3 19 -17v-1061h197q18 -3 18 -17v-198h198v198q3 18 17 17h199v1061q1 17 16 17h2h197q18 -3 18 -17v-1061q0 -18 -18 -17h-197v-198q0 -19 -18 -19h-199v-197q0 -18 -17 -18h-198q-18 0 -18 18v197h-197q-19 0 -19 19v198h-198 q-18 0 -17 17z" />
<glyph unicode="W" d="M99 345v1276q3 17 18 17h198q19 -3 19 -17v-1276h197v629q3 18 18 18h197q18 -3 18 -18v-629h199v1276q1 17 15 17h2h198q18 -3 17 -17v-1276q0 -19 -17 -19h-198v-197q0 -18 -17 -18h-199q-18 0 -18 18v197h-197v-197q0 -18 -18 -18h-197q-19 0 -19 18v197h-198 q-18 0 -18 19z" />
<glyph unicode="X" d="M102 121v416q3 19 18 19h199v197q3 19 17 19h199v198h-199q-18 0 -17 19v197h-199q-18 0 -18 19v416q3 17 18 17h199q18 -3 17 -17v-416h199q19 -3 19 -19v-197h198v197q3 19 19 19h197v416q3 17 17 17h2h198q19 -3 19 -17v-416q0 -19 -19 -19h-198v-197q0 -19 -19 -19 h-197v-198h197q19 -3 19 -19v-197h198q19 -3 19 -19v-416q0 -17 -17 -17h-2h-198q-19 0 -19 17v416h-197q-19 0 -19 19v197h-198v-197q0 -19 -19 -19h-199v-416q0 -17 -15 -17h-2h-199q-18 0 -18 17z" />
<glyph unicode="Y" d="M101 993v631q2 17 17 17h199q18 -1 18 -17v-631h197q19 -3 19 -17v-198h198v198q3 18 19 17h197v631q3 17 16 17h2h199q18 -1 18 -17v-631q0 -18 -18 -17h-199v-198q0 -19 -18 -19h-197v-630q0 -18 -19 -18h-198q-19 0 -19 18v630h-197q-18 0 -18 19v198h-199 q-18 0 -17 17z" />
<glyph unicode="Z" d="M107 127v416q3 18 17 17h199v198q3 19 18 19h199v197q3 19 17 19h198v198q3 18 19 17h197v199h-847q-18 0 -17 18v199q2 17 17 17h1064q18 -3 17 -17v-416q0 -18 -17 -17h-198v-198q0 -19 -19 -19h-197v-197q0 -19 -19 -19h-198v-198q0 -18 -17 -17h-199v-199h847 q18 -3 17 -18v-199q0 -17 -15 -17h-2h-1064q-18 0 -17 17z" />
<glyph unicode="[" d="M317 123v1498q3 17 18 17h632q18 -3 18 -17v-199q0 -18 -18 -18h-416v-1065h416q18 -3 18 -17v-199q0 -18 -18 -18h-632q-18 0 -18 18z" />
<glyph unicode="\" d="M99 1204v197q3 18 18 18h198q18 -3 17 -18v-197h198q19 -3 19 -18v-197h196q19 -3 19 -19v-196h197q18 -3 18 -19v-198h197q18 -3 18 -17v-198q0 -18 -18 -17h-197q-18 0 -18 17v198h-197q-19 0 -19 17v198h-196q-19 0 -19 19v196h-198q-18 0 -17 19v197h-198 q-18 0 -18 18z" />
<glyph unicode="]" d="M322 127v199q3 18 17 18h414v1060h-414q-18 0 -17 18v199q2 17 17 17h631q18 -3 17 -17v-1494q0 -18 -17 -17h-631q-18 0 -17 17z" />
<glyph unicode="^" d="M107 1009v196q3 18 17 18h196v195q3 18 18 17h194v196q3 18 18 18h196q18 -3 18 -18v-196h194q19 -3 19 -17v-195h195q18 -3 17 -18v-196q0 -18 -17 -17h-195q-19 0 -19 17v196h-194q-18 0 -18 18v195h-196v-195q0 -18 -18 -18h-194v-196q0 -18 -18 -17h-196 q-18 0 -17 17z" />
<glyph unicode="_" d="M105 113v197q3 18 18 18h1056q18 -3 18 -18v-197q0 -18 -18 -18h-1056q-18 0 -18 18z" />
<glyph unicode="`" d="M538 1431v199q3 17 18 17h199q18 -3 17 -17v-199h199q18 -3 18 -18v-199q0 -18 -18 -17h-199q-18 0 -17 17v199h-199q-18 0 -18 18z" />
<glyph unicode="a" d="M107 338v197q3 18 17 18h198v196q3 18 17 18h626v197h-626q-18 0 -17 18v197q2 18 17 18h626q18 -3 18 -18v-197h198q18 -3 17 -18v-841q0 -18 -17 -18h-842q-18 0 -17 18v197h-198q-18 0 -17 18zM339 338h626v197h-626v-197z" />
<glyph unicode="b" d="M99 127v1494q3 17 18 17h199q18 -3 18 -17v-631h197v199q3 18 18 18h414q18 -3 17 -18v-199h199q18 -1 18 -17v-629q0 -18 -18 -18h-199v-199q0 -17 -15 -17h-2h-846q-18 0 -18 17zM334 344h629v629h-414v-198q0 -18 -18 -17h-197v-414z" />
<glyph unicode="c" d="M105 339v625q3 18 18 18h197v197q2 18 18 18h625q18 -3 17 -18v-197q0 -18 -17 -18h-625v-625h625v196q3 18 17 18h198q18 -3 17 -18v-196q0 -18 -17 -17h-198v-198q0 -17 -15 -17h-2h-625q-18 0 -18 17v198h-197q-18 0 -18 17z" />
<glyph unicode="d" d="M104 338v630q3 18 17 18h199v197q3 19 18 19h414q18 -3 17 -19v-197h199v630q3 18 18 18h197q19 -3 19 -18v-1495q0 -17 -17 -17h-2h-845q-18 0 -18 17v199h-199q-18 0 -17 18zM338 338h630v414h-199q-18 0 -17 17v199h-414v-630z" />
<glyph unicode="e" d="M105 338v625q3 18 18 17h197v198q2 17 18 17h625q18 -3 17 -17v-198h198q18 -1 17 -17v-412q0 -18 -17 -17h-840v-196h625q18 -3 17 -18v-197q0 -18 -17 -18h-625q-18 0 -18 18v197h-197q-18 0 -18 18zM338 767h625v196h-625v-196z" />
<glyph unicode="f" d="M97 774v199q3 18 17 17h199v416q3 18 18 17h199v199q2 18 17 18h416q18 -3 17 -18v-199h199q18 -3 18 -17v-199q0 -18 -18 -18h-199q-18 0 -17 18v199h-416v-416h199q18 -3 18 -17v-199q0 -18 -18 -18h-199v-632q0 -17 -15 -17h-2h-199q-18 0 -18 17v632h-199 q-18 0 -17 18z" />
<glyph unicode="g" d="M110 755v407q3 19 17 19h195v194q3 18 19 18h832q19 -3 19 -18v-1046q0 -19 -19 -19h-194v-194q0 -18 -18 -18h-620q-19 0 -19 18v194q3 19 19 19h620v195h-620q-19 0 -19 17v195h-195q-18 0 -17 19zM341 755h620v407h-620v-407z" />
<glyph unicode="h" d="M99 126v1495q3 17 18 17h199q18 -1 18 -17v-631h197v199q3 18 19 18h414q18 -3 18 -18v-199h199q18 -3 17 -17v-847q0 -18 -17 -18h-199q-18 0 -18 18v847h-414v-198q0 -19 -19 -19h-197v-630q0 -18 -18 -18h-199q-18 0 -18 18z" />
<glyph unicode="i" d="M317 127v199q3 18 18 18h199v630h-199q-18 0 -18 19v198q3 17 18 17h415q18 -3 18 -17v-847h197q19 -3 20 -18v-199q0 -17 -18 -17h-2h-630q-18 0 -18 17zM534 1425v199q2 17 17 17h199q18 -3 18 -17v-199q0 -18 -18 -18h-199q-18 0 -17 18z" />
<glyph unicode="j" d="M105 341v199q3 18 18 17h199q18 -3 17 -17v-199h414v630h-197q-18 0 -18 19v198q3 17 18 17h414q19 -3 19 -17v-847q0 -18 -19 -18h-198v-199q0 -17 -17 -17h-2h-414q-18 0 -17 17v199h-199q-18 0 -18 18zM753 1422v199q3 17 19 17h198q19 -3 19 -17v-199q0 -18 -19 -18 h-198q-19 0 -19 18z" />
<glyph unicode="k" d="M98 124v1495q3 18 18 18h199q18 -3 17 -18v-847h198v199q3 18 19 18h197v197q3 19 18 19h199q18 -3 17 -19v-197q0 -18 -17 -18h-199v-199q0 -18 -18 -17h-197v-198h197q18 -3 18 -19v-197h199q18 -3 17 -18v-199q0 -17 -15 -17h-2h-199q-18 0 -18 17v199h-197 q-19 0 -19 18v197h-198v-414q0 -17 -15 -17h-2h-199q-18 0 -18 17z" />
<glyph unicode="l" d="M315 124v199q3 18 17 18h199v1063h-199q-18 0 -17 18v199q2 17 17 17h416q18 -3 17 -17v-1280h198q19 -3 19 -18v-199q0 -17 -17 -17h-2h-631q-18 0 -17 17z" />
<glyph unicode="m" d="M105 126v1053q3 18 18 18h411q18 -3 17 -18v-196h197v196q3 18 17 18h196q19 -3 19 -18v-196h196q18 -3 18 -19v-838q0 -18 -18 -18h-196q-19 0 -19 18v838h-196v-410q0 -18 -17 -17h-197q-18 0 -17 17v410h-196v-838q0 -18 -19 -18h-196q-18 0 -18 18z" />
<glyph unicode="n" d="M104 126v1053q2 18 17 18h196q19 -3 19 -18v-196h196v196q3 18 18 18h410q19 -3 19 -18v-196h196q18 -3 17 -19v-838q0 -18 -17 -18h-196q-19 0 -19 18v838h-410v-196q0 -18 -18 -18h-196v-624q0 -18 -19 -18h-196q-18 0 -17 18z" />
<glyph unicode="o" d="M107 339v624q3 19 17 19h196v196q3 17 19 17h624q19 -3 19 -17v-196h196q18 -3 17 -19v-624q0 -19 -17 -19h-196v-196q0 -17 -17 -17h-2h-624q-19 0 -19 17v196h-196q-18 0 -17 19zM339 339h624v624h-624v-624z" />
<glyph unicode="p" d="M104 124v1058q2 18 17 18h843q18 -3 18 -18v-197h197q18 -3 18 -18v-198q0 -18 -18 -17h-197v-198q0 -18 -18 -17h-628v-413q0 -17 -15 -17h-2h-198q-18 0 -17 17zM336 769h628v198h-628v-198z" />
<glyph unicode="q" d="M107 769v198q3 18 17 18h198v197q2 18 17 18h411q18 -3 18 -18v-197h197v197q3 18 18 18h198q18 -3 17 -18v-1056q0 -18 -17 -18h-198q-18 0 -18 18v412h-626q-18 0 -17 18v196h-198q-18 0 -17 17zM339 769h411v198h-411v-198z" />
<glyph unicode="r" d="M108 124v1051q3 17 18 17h196q18 -3 17 -17v-196h196v196q3 17 16 17h2h410q18 -3 17 -17v-196h196q18 -3 18 -18v-196q0 -18 -18 -17h-196q-18 0 -17 17v196h-410v-196q0 -18 -18 -17h-196v-624q0 -17 -15 -17h-2h-196q-18 0 -18 17z" />
<glyph unicode="s" d="M105 121v199q3 18 18 18h845v197h-629q-18 0 -17 18v199h-199q-18 0 -18 17v198q3 18 18 18h199v198q1 18 17 18h629q18 -3 18 -18v-198q0 -18 -18 -18h-629v-198h629q18 -3 18 -17v-199h199q18 -3 17 -18v-197q0 -18 -17 -18h-199v-199q0 -17 -16 -17h-2h-845 q-18 0 -18 17z" />
<glyph unicode="t" d="M102 992v197q3 19 18 19h199v416q2 17 17 17h199q19 -3 19 -17v-416h198q19 -3 19 -19v-197q0 -19 -19 -19h-198v-632h414v199q3 19 19 19h198q19 -3 19 -19v-199q0 -18 -19 -18h-198v-199q0 -17 -17 -17h-2h-414q-19 0 -19 17v199h-199q-18 0 -17 18v632h-199 q-18 0 -18 19z" />
<glyph unicode="u" d="M102 339v839q3 17 18 17h196q19 -3 19 -17v-839h410v196q3 18 17 18h196v625q3 17 17 17h2h196q18 -3 18 -17v-1054q0 -17 -16 -17h-2h-196q-19 0 -19 17v196h-196v-196q0 -17 -15 -17h-2h-410q-19 0 -19 17v196h-196q-18 0 -18 19z" />
<glyph unicode="v" d="M105 554v625q3 18 18 18h196q19 -3 19 -18v-625h196q18 -3 17 -17v-196h197v196q3 18 17 17h196v625q3 18 19 18h196q18 -3 18 -18v-625q0 -18 -18 -17h-196v-196q0 -19 -19 -19h-196v-196q0 -18 -17 -18h-197q-18 0 -17 18v196h-196q-19 0 -19 19v196h-196q-18 0 -18 17 z" />
<glyph unicode="w" d="M107 334v841q2 17 17 17h198q18 -3 17 -17v-841h198v411q1 18 17 17h196q18 -1 18 -17v-411h197v841q3 17 16 17h2h198q18 -3 17 -17v-841q0 -18 -17 -18h-198v-198q0 -17 -16 -17h-2h-197q-18 0 -18 17v198h-196v-198q0 -17 -15 -17h-2h-198q-18 0 -17 17v198h-198 q-18 0 -17 18z" />
<glyph unicode="x" d="M104 127v198q3 18 17 17h198v198q3 18 17 17h198v196h-198q-18 0 -17 18v197h-198q-18 0 -17 18v197q2 18 17 18h198q18 -3 17 -18v-197h198q18 -3 17 -18v-197h197v197q3 18 17 18h198v197q3 18 17 18h198q18 -3 17 -18v-197q0 -18 -17 -18h-198v-197q0 -18 -17 -18 h-198v-196h198q18 -3 17 -17v-198h198q18 -3 17 -17v-198q0 -17 -15 -17h-2h-198q-18 0 -17 17v198h-198q-18 0 -17 17v198h-197v-198q0 -18 -17 -17h-198v-198q0 -17 -15 -17h-2h-198q-18 0 -17 17z" />
<glyph unicode="y" d="M104 768v411q2 18 17 18h198q18 -3 17 -18v-411h625v411q3 18 18 18h197q18 -3 18 -18v-840q0 -18 -18 -17h-197v-198q0 -17 -16 -17h-2h-625q-18 0 -17 17v198q1 18 17 17h625v196h-625q-18 0 -17 18v197h-198q-18 0 -17 18z" />
<glyph unicode="z" d="M99 118v199q3 18 18 18h199v197q3 19 18 19h197v198q3 19 19 19h198v197h-631q-18 0 -18 18v199q3 18 18 18h1064q18 -3 17 -18v-199q0 -18 -17 -18h-199v-197q0 -19 -18 -19h-197v-198q0 -19 -19 -19h-198v-197h631q18 -3 17 -18v-199q0 -17 -15 -17h-2h-1064 q-18 0 -18 17z" />
<glyph unicode="{" d="M164 771v197q3 19 17 19h199v414q3 18 18 18h199v199q2 17 17 17h198q19 -3 19 -17v-199q0 -18 -19 -18h-198v-414q0 -19 -17 -19h-199v-197h199q18 -3 17 -19v-414h198q19 -3 19 -18v-199q0 -18 -19 -17h-198q-18 0 -17 17v199h-199q-18 0 -18 18v414h-199q-18 0 -17 19 z" />
<glyph unicode="|" d="M534 124v1492q2 18 17 18h198q19 -3 19 -18v-1492q0 -18 -19 -17h-198q-18 0 -17 17z" />
<glyph unicode="}" d="M470 127v198q3 19 17 19h198v412q3 18 19 18h197v199h-197q-19 0 -19 17v413h-198q-18 0 -17 19v197q2 18 17 18h198q19 -3 19 -18v-197h197q18 -3 18 -19v-413h197q18 -3 18 -17v-199q0 -18 -18 -18h-197v-412q0 -19 -18 -19h-197v-198q0 -18 -19 -17h-198q-18 0 -17 17 z" />
<glyph unicode="~" d="M0 562v188q3 16 18 17h188v188q1 18 16 18h395q16 -3 16 -18v-188h395v188q3 18 16 18h189q18 -3 18 -18v-188q0 -16 -18 -17h-189v-188q0 -18 -16 -18h-395q-16 0 -16 18v188h-395v-188q0 -18 -16 -18h-188q-18 0 -18 18z" />
<glyph unicode="&#xa0;" />
<glyph unicode="&#xa1;" d="M549 107v200h201v-200h-201zM549 328v202h201v-202h-201zM549 550v202h201v-202h-201zM549 771v202h201v-202h-201zM549 1214v204h201v-204h-201z" />
<glyph unicode="&#xa2;" d="M105 549v201h201v-201h-201zM105 771v202h201v-202h-201zM105 993v201h201v-201h-201zM326 328v202h202v-202h-202zM326 1214v202h202v-202h-202zM549 107v200h201v-200h-201zM549 328v202h201v-202h-201zM549 550v202h200v-202h-200zM549 771v202h200v-202h-200z M549 993v201h200v-201h-200zM549 1214v202h200v-202h-200zM549 1437v201h200v-201h-200zM769 328v202h202v-202h-202zM769 1214v202h202v-202h-202zM992 550v202h202v-202h-202z" />
<glyph unicode="&#xa3;" d="M105 771v202h201v-202h-201zM326 107v200h202v-200h-202zM326 328v202h202v-202h-202zM326 550v200h202v-200h-202zM326 771v202h202v-202h-202zM326 993v201h202v-201h-202zM326 1214v202h202v-202h-202zM549 107v200h201v-200h-201zM549 771v202h200v-202h-200z M549 1437v201h200v-201h-200zM769 107v200h202v-200h-202zM769 771v202h202v-202h-202zM769 1214v202h202v-202h-202zM992 107v200h202v-200h-202z" />
<glyph unicode="&#xa4;" d="M105 107v200h201v-200h-201zM105 549v201h201v-201h-201zM105 771v202h201v-202h-201zM105 993v201h201v-201h-201zM105 1435v203h201v-203h-201zM326 328v202h202v-202h-202zM326 1214v202h202v-202h-202zM549 328v202h200v-202h-200zM549 1214v202h200v-202h-200z M769 328v202h202v-202h-202zM769 1214v202h202v-202h-202zM992 107v200h202v-200h-202zM992 550v202h202v-202h-202zM992 771v202h202v-202h-202zM992 993v202h202v-202h-202zM992 1437v201h202v-201h-202z" />
<glyph unicode="&#xa5;" d="M105 328v200h201v-200h-201zM105 771v202h201v-202h-201zM105 1435v203h201v-203h-201zM326 328v202h202v-202h-202zM326 771v202h202v-202h-202zM326 1214v202h202v-202h-202zM549 107v200h200v-200h-200zM549 328v202h200v-202h-200zM549 550v200h200v-200h-200z M549 771v202h200v-202h-200zM549 993v201h200v-201h-200zM769 328v202h202v-202h-202zM769 771v202h202v-202h-202zM769 1214v202h202v-202h-202zM992 328v202h202v-202h-202zM992 771v202h202v-202h-202zM992 1437v201h202v-201h-202z" />
<glyph unicode="&#xa6;" d="M549 107v200h201v-200h-201zM549 328v202h201v-202h-201zM549 550v202h201v-202h-201zM549 993v202h201v-202h-201zM549 1214v202h201v-202h-201zM549 1437v201h201v-201h-201z" />
<glyph unicode="&#xa7;" d="M105 993v201h201v-201h-201zM105 1214v202h201v-202h-201zM326 107v200h202v-200h-202zM326 771v202h202v-202h-202zM326 993v201h202v-201h-202zM326 1437v201h202v-201h-202zM549 107v200h200v-200h-200zM549 550v202h200v-202h-200zM549 993v201h200v-201h-200z M549 1437v201h200v-201h-200zM769 107v200h202v-200h-202zM769 550v202h202v-202h-202zM769 771v202h202v-202h-202zM769 1437v201h202v-201h-202zM992 328v202h202v-202h-202zM992 550v202h202v-202h-202z" />
<glyph unicode="&#xa8;" d="M105 771v202h201v-202h-201zM105 993v201h201v-201h-201zM105 1214v204h201v-204h-201zM326 550v200h202v-200h-202zM326 771v202h202v-202h-202zM326 993v201h202v-201h-202zM326 1214v204h202v-204h-202zM549 328v202h200v-202h-200zM549 550v200h200v-200h-200z M549 771v202h200v-202h-200zM549 993v201h200v-201h-200zM769 550v202h202v-202h-202zM769 771v202h202v-202h-202zM769 993v201h202v-201h-202zM769 1214v204h202v-204h-202zM992 771v202h202v-202h-202zM992 993v202h202v-202h-202zM992 1214v204h202v-204h-202z" />
<glyph unicode="&#xa9;" d="M105 328v200h201v-200h-201zM105 549v201h201v-201h-201zM105 771v202h201v-202h-201zM105 992v202h201v-202h-201zM105 1214v202h201v-202h-201zM326 107v200h202v-200h-202zM326 771v202h202v-202h-202zM326 1437v201h202v-201h-202zM549 107v200h200v-200h-200z M549 550v200h200v-200h-200zM549 993v201h200v-201h-200zM549 1437v201h200v-201h-200zM769 107v200h202v-200h-202zM769 1437v201h202v-201h-202zM992 328v202h202v-202h-202zM992 550v202h202v-202h-202zM992 771v202h202v-202h-202zM992 993v202h202v-202h-202zM992 1214 v202h202v-202h-202z" />
<glyph unicode="&#xaa;" d="M105 107v200h201v-200h-201zM105 328v202h201v-202h-201zM105 549v201h201v-201h-201zM105 771v202h201v-202h-201zM105 993v201h201v-201h-201zM326 107v200h202v-200h-202zM326 993v201h202v-201h-202zM326 1214v202h202v-202h-202zM326 1437v201h202v-201h-202z M549 107v200h200v-200h-200zM549 993v201h200v-201h-200zM769 328v202h202v-202h-202zM769 550v202h202v-202h-202zM769 771v202h202v-202h-202zM769 993v202h202v-202h-202zM771 107v200h200v-200h-200z" />
<glyph unicode="&#xab;" d="M105 107v200h201v-200h-201zM105 549v201h201v-201h-201zM105 992v202h201v-202h-201zM105 1214v202h201v-202h-201zM326 107v200h202v-200h-202zM326 549v201h202v-201h-202zM326 993v201h202v-201h-202zM326 1435v203h202v-203h-202zM549 328v202h200v-202h-200z M549 993v201h200v-201h-200zM549 1214v202h200v-202h-200zM549 1437v201h200v-201h-200zM769 107v200h202v-200h-202zM769 550v202h202v-202h-202zM769 993v201h202v-201h-202zM769 1437v201h202v-201h-202zM992 107v200h202v-200h-202zM992 550v202h202v-202h-202zM992 993 v202h202v-202h-202zM992 1214v202h202v-202h-202z" />
<glyph unicode="&#xac;" d="M105 549v201h201v-201h-201zM105 771v202h201v-202h-201zM105 992v202h201v-202h-201zM105 1214v202h201v-202h-201zM326 107v200h202v-200h-202zM326 328v200h202v-200h-202zM326 549v201h202v-201h-202zM326 992v202h202v-202h-202zM326 1435v203h202v-203h-202z M549 549v201h200v-201h-200zM549 771v202h200v-202h-200zM549 993v201h200v-201h-200zM549 1214v202h200v-202h-200zM549 1437v201h200v-201h-200zM769 107v200h202v-200h-202zM769 328v202h202v-202h-202zM769 550v202h202v-202h-202zM769 993v201h202v-201h-202zM769 1437 v201h202v-201h-202zM992 550v202h202v-202h-202zM992 771v202h202v-202h-202zM992 993v202h202v-202h-202zM992 1214v202h202v-202h-202z" />
<glyph unicode="&#xad;" d="M98 775v199q3 18 18 18h1062q19 -3 19 -18v-199q0 -18 -19 -17h-1062q-18 0 -18 17z" />
<glyph unicode="&#xae;" d="M105 1437v201h201v-201h-201zM549 328v202h201v-202h-201zM549 550v200h201v-200h-201zM549 771v202h200v-202h-200zM549 1214v202h200v-202h-200zM549 1437v201h200v-201h-200zM769 328v202h202v-202h-202zM769 550v202h202v-202h-202zM769 771v202h202v-202h-202z M769 1214v202h202v-202h-202zM769 1437v201h202v-201h-202zM992 328v202h202v-202h-202zM992 550v202h202v-202h-202zM992 771v202h202v-202h-202z" />
<glyph unicode="&#xaf;" d="M105 107v200h202v-200h-202zM105 328v202h202v-202h-202zM105 550v202h202v-202h-202zM326 771v202h202v-202h-202zM326 993v202h202v-202h-202zM549 1214v202h201v-202h-201zM769 1437v201h202v-201h-202zM992 1437v201h202v-201h-202z" />
<glyph unicode="&#xb0;" d="M105 1437v201h202v-201h-202zM326 1437v201h202v-201h-202zM549 1214v202h201v-202h-201zM769 771v202h202v-202h-202zM769 993v202h202v-202h-202zM992 107v200h202v-200h-202zM992 328v202h202v-202h-202zM992 550v202h202v-202h-202z" />
<glyph unicode="&#xb1;" d="M105 107v200h201v-200h-201zM105 993v201h201v-201h-201zM326 107v200h202v-200h-202zM326 993v201h202v-201h-202zM549 107v200h201v-200h-201zM549 550v202h200v-202h-200zM549 771v202h200v-202h-200zM549 993v201h200v-201h-200zM549 1214v202h200v-202h-200z M549 1437v201h200v-201h-200zM769 107v200h202v-200h-202zM769 993v202h202v-202h-202zM992 107v200h202v-200h-202zM992 993v202h202v-202h-202z" />
<glyph unicode="&#xb2;" d="M105 107v200h201v-200h-201zM105 328v202h201v-202h-201zM105 1214v202h201v-202h-201zM105 1437v201h201v-201h-201zM326 107v200h202v-200h-202zM326 550v200h202v-200h-202zM326 993v201h202v-201h-202zM326 1437v201h202v-201h-202zM549 107v200h201v-200h-201z M549 771v202h200v-202h-200zM549 1437v201h200v-201h-200zM769 107v200h202v-200h-202zM769 1437v201h202v-201h-202zM992 107v200h202v-200h-202zM992 1437v201h202v-201h-202z" />
<glyph unicode="&#xb3;" d="M105 107v200h201v-200h-201zM105 328v202h201v-202h-201zM105 549v201h201v-201h-201zM105 771v202h201v-202h-201zM105 993v201h201v-201h-201zM105 1214v202h201v-202h-201zM105 1435v203h201v-203h-201zM326 1437v201h202v-201h-202zM549 1437v201h200v-201h-200z M769 1437v201h202v-201h-202zM992 107v200h202v-200h-202zM992 328v202h202v-202h-202zM992 550v202h202v-202h-202zM992 771v202h202v-202h-202zM992 993v202h202v-202h-202zM992 1214v202h202v-202h-202zM992 1437v201h202v-201h-202z" />
<glyph unicode="&#xb4;" d="M105 328v202h201v-202h-201zM105 549v201h201v-201h-201zM326 107v200h202v-200h-202zM326 993v201h202v-201h-202zM326 1214v204h202v-204h-202zM549 107v200h200v-200h-200zM769 107v200h202v-200h-202zM769 993v202h202v-202h-202zM769 1214v204h202v-204h-202z M992 328v202h202v-202h-202zM992 550v202h202v-202h-202z" />
<glyph unicode="&#xb5;" d="M105 107v200h202v-200h-202zM105 328v202h202v-202h-202zM105 550v202h202v-202h-202zM105 771v202h202v-202h-202zM105 993v202h202v-202h-202zM326 550v202h202v-202h-202zM549 550v202h201v-202h-201zM769 550v202h202v-202h-202zM992 771v202h202v-202h-202zM992 993 v202h202v-202h-202z" />
<glyph unicode="&#xb6;" d="M105 993v201h201v-201h-201zM105 1214v202h201v-202h-201zM326 771v202h202v-202h-202zM326 993v201h202v-201h-202zM326 1214v202h202v-202h-202zM326 1435v203h202v-203h-202zM549 107v200h200v-200h-200zM549 328v202h200v-202h-200zM549 549v201h200v-201h-200z M549 771v202h200v-202h-200zM549 993v201h200v-201h-200zM549 1214v202h200v-202h-200zM549 1435v203h200v-203h-200zM769 1437v201h202v-201h-202zM992 107v200h202v-200h-202zM992 328v202h202v-202h-202zM992 550v202h202v-202h-202zM992 771v202h202v-202h-202zM992 993 v202h202v-202h-202zM992 1214v202h202v-202h-202zM992 1437v201h202v-201h-202z" />
<glyph unicode="&#xb7;" d="M105 107v200h201v-200h-201zM105 328v202h201v-202h-201zM326 550v202h202v-202h-202zM326 993v201h202v-201h-202zM326 1214v204h202v-204h-202zM549 550v202h200v-202h-200zM769 550v202h202v-202h-202zM769 993v202h202v-202h-202zM769 1214v204h202v-204h-202z M992 107v200h202v-200h-202zM992 328v202h202v-202h-202z" />
<glyph unicode="&#xb8;" d="M105 107v200h201v-200h-201zM105 328v200h201v-200h-201zM105 549v201h201v-201h-201zM105 771v202h201v-202h-201zM105 992v202h201v-202h-201zM105 1214v202h201v-202h-201zM105 1435v203h201v-203h-201zM326 107v200h202v-200h-202zM326 1437v201h202v-201h-202z M549 107v200h200v-200h-200zM549 1437v201h200v-201h-200zM769 107v200h202v-200h-202zM769 1437v201h202v-201h-202zM992 107v200h202v-200h-202zM992 328v202h202v-202h-202zM992 550v202h202v-202h-202zM992 771v202h202v-202h-202zM992 993v202h202v-202h-202zM992 1214 v202h202v-202h-202zM992 1437v201h202v-201h-202z" />
<glyph unicode="&#xb9;" d="M105 107v200h201v-200h-201zM105 549v201h201v-201h-201zM105 992v202h201v-202h-201zM105 1435v203h201v-203h-201zM326 107v200h202v-200h-202zM326 549v201h202v-201h-202zM326 992v202h202v-202h-202zM326 1435v203h202v-203h-202zM549 107v200h200v-200h-200z M549 328v202h200v-202h-200zM549 549v201h200v-201h-200zM549 771v202h200v-202h-200zM549 993v201h200v-201h-200zM549 1214v202h200v-202h-200zM549 1435v203h200v-203h-200zM769 107v200h202v-200h-202zM769 550v202h202v-202h-202zM769 993v201h202v-201h-202zM769 1437 v201h202v-201h-202zM992 107v200h202v-200h-202zM992 550v202h202v-202h-202zM992 993v202h202v-202h-202zM992 1437v201h202v-201h-202z" />
<glyph unicode="&#xba;" d="M328 1214v202h200v-202h-200zM549 993v202h201v-202h-201zM549 1437v201h201v-201h-201zM771 1216v200h202v-200h-202z" />
<glyph unicode="&#xbb;" d="M105 107h202v202h-202v-202zM105 550h202v202h-202v-202zM105 993h202v202h-202v-202zM105 1437h202v201h-202v-201zM328 328h200v202h-200v-202zM328 771h200v202h-200v-202zM328 1216h200v202h-200v-202zM549 107h201v202h-201v-202zM549 550h201v202h-201v-202z M549 993h201v202h-201v-202zM549 1437h201v201h-201v-201zM771 328h202v202h-202v-202zM771 771h202v202h-202v-202zM771 1216h202v202h-202v-202zM992 107h202v202h-202v-202zM992 550h202v202h-202v-202zM992 993h202v202h-202v-202zM992 1437h202v201h-202v-201z" />
<glyph unicode="&#xbc;" d="M105 550v200h201v-200h-201zM105 771v202h201v-202h-201zM105 992v202h201v-202h-201zM105 1214v202h201v-202h-201zM105 1435v203h201v-203h-201zM326 550v200h202v-200h-202zM326 1435v203h202v-203h-202zM549 107v200h200v-200h-200zM549 328v202h200v-202h-200z M549 550v200h200v-200h-200zM549 771v202h200v-202h-200zM549 993v201h200v-201h-200zM549 1214v202h200v-202h-200zM549 1437v201h200v-201h-200zM769 550v202h202v-202h-202zM769 1437v201h202v-201h-202zM992 550v202h202v-202h-202zM992 771v202h202v-202h-202zM992 993 v202h202v-202h-202zM992 1214v202h202v-202h-202zM992 1437v201h202v-201h-202z" />
<glyph unicode="&#xbd;" d="M105 107v200h201v-200h-201zM105 328v202h201v-202h-201zM105 549v201h201v-201h-201zM105 771v202h201v-202h-201zM326 107v200h202v-200h-202zM326 993v201h202v-201h-202zM326 1214v202h202v-202h-202zM549 107v200h200v-200h-200zM549 1437v201h200v-201h-200z M769 107v200h202v-200h-202zM769 993v201h202v-201h-202zM769 1214v202h202v-202h-202zM992 107v200h202v-200h-202zM992 328v202h202v-202h-202zM992 550v202h202v-202h-202zM992 771v202h202v-202h-202z" />
<glyph unicode="&#xbe;" d="M105 107v200h201v-200h-201zM105 328v202h201v-202h-201zM105 549v201h201v-201h-201zM105 771v202h201v-202h-201zM326 993v201h202v-201h-202zM326 1214v202h202v-202h-202zM549 1437v201h200v-201h-200zM769 993v202h202v-202h-202zM769 1214v202h202v-202h-202z M992 107v200h202v-200h-202zM992 328v202h202v-202h-202zM992 550v202h202v-202h-202zM992 771v202h202v-202h-202z" />
<glyph unicode="&#xbf;" d="M105 328v202h202v-202h-202zM105 550v202h202v-202h-202zM326 107v200h202v-200h-202zM326 771v202h202v-202h-202zM549 107v200h201v-200h-201zM549 993v202h201v-202h-201zM549 1437v201h201v-201h-201zM769 107v200h202v-200h-202zM992 328v202h202v-202h-202z" />
<glyph unicode="&#xc0;" d="M105 107v200h201v-200h-201zM105 328v202h201v-202h-201zM105 549v201h201v-201h-201zM105 771v202h201v-202h-201zM326 549v201h202v-201h-202zM326 993v201h202v-201h-202zM326 1437v201h202v-201h-202zM549 550v202h200v-202h-200zM549 993v201h200v-201h-200z M549 1214v202h200v-202h-200zM769 550v202h202v-202h-202zM769 993v201h202v-201h-202zM992 107v200h202v-200h-202zM992 328v202h202v-202h-202zM992 550v202h202v-202h-202zM992 771v202h202v-202h-202z" />
<glyph unicode="&#xc1;" d="M105 107v200h201v-200h-201zM105 328v202h201v-202h-201zM105 549v201h201v-201h-201zM105 771v202h201v-202h-201zM326 549v201h202v-201h-202zM326 993v201h202v-201h-202zM549 550v202h200v-202h-200zM549 993v201h200v-201h-200zM549 1214v202h200v-202h-200z M769 550v202h202v-202h-202zM769 993v201h202v-201h-202zM769 1437v201h202v-201h-202zM992 107v200h202v-200h-202zM992 328v202h202v-202h-202zM992 550v202h202v-202h-202zM992 771v202h202v-202h-202z" />
<glyph unicode="&#xc2;" d="M105 107v200h201v-200h-201zM105 328v200h201v-200h-201zM105 549v201h201v-201h-201zM105 771v202h201v-202h-201zM326 549v201h202v-201h-202zM326 993v201h202v-201h-202zM326 1214v202h202v-202h-202zM549 550v202h200v-202h-200zM549 993v201h200v-201h-200z M549 1437v201h200v-201h-200zM769 550v202h202v-202h-202zM769 993v201h202v-201h-202zM769 1214v202h202v-202h-202zM992 107v200h202v-200h-202zM992 328v202h202v-202h-202zM992 550v202h202v-202h-202zM992 771v202h202v-202h-202z" />
<glyph unicode="&#xc3;" d="M105 107v200h201v-200h-201zM105 328v200h201v-200h-201zM105 549v201h201v-201h-201zM105 771v202h201v-202h-201zM105 1214v202h201v-202h-201zM326 549v201h202v-201h-202zM326 993v201h202v-201h-202zM326 1437v201h202v-201h-202zM549 550v202h200v-202h-200z M549 993v201h200v-201h-200zM549 1214v202h200v-202h-200zM769 550v202h202v-202h-202zM769 993v201h202v-201h-202zM769 1437v201h202v-201h-202zM992 107v200h202v-200h-202zM992 328v202h202v-202h-202zM992 550v202h202v-202h-202zM992 771v202h202v-202h-202z" />
<glyph unicode="&#xc4;" d="M105 107v200h201v-200h-201zM105 328v202h201v-202h-201zM105 549v201h201v-201h-201zM105 771v202h201v-202h-201zM326 549v201h202v-201h-202zM326 993v201h202v-201h-202zM326 1437v201h202v-201h-202zM549 550v202h200v-202h-200zM549 993v201h200v-201h-200z M769 550v202h202v-202h-202zM769 993v201h202v-201h-202zM769 1437v201h202v-201h-202zM992 107v200h202v-200h-202zM992 328v202h202v-202h-202zM992 550v202h202v-202h-202zM992 771v202h202v-202h-202z" />
<glyph unicode="&#xc5;" d="M105 107v200h201v-200h-201zM105 328v200h201v-200h-201zM105 549v201h201v-201h-201zM105 771v202h201v-202h-201zM326 549v201h202v-201h-202zM326 993v201h202v-201h-202zM326 1214v202h202v-202h-202zM326 1435v203h202v-203h-202zM549 550v200h200v-200h-200z M549 993v201h200v-201h-200zM549 1437v201h200v-201h-200zM769 550v202h202v-202h-202zM769 993v201h202v-201h-202zM769 1214v202h202v-202h-202zM769 1437v201h202v-201h-202zM992 107v200h202v-200h-202zM992 328v202h202v-202h-202zM992 550v202h202v-202h-202zM992 771 v202h202v-202h-202z" />
<glyph unicode="&#xc6;" d="M105 107v200h201v-200h-201zM105 328v200h201v-200h-201zM105 549v201h201v-201h-201zM105 771v202h201v-202h-201zM105 992v202h201v-202h-201zM105 1214v202h201v-202h-201zM326 771v202h202v-202h-202zM326 1435v203h202v-203h-202zM549 107v200h200v-200h-200z M549 328v202h200v-202h-200zM549 550v200h200v-200h-200zM549 771v202h200v-202h-200zM549 993v201h200v-201h-200zM549 1214v202h200v-202h-200zM549 1437v201h200v-201h-200zM769 107v200h202v-200h-202zM769 771v202h202v-202h-202zM769 1437v201h202v-201h-202zM992 107 v200h202v-200h-202zM992 771v202h202v-202h-202zM992 1437v201h202v-201h-202z" />
<glyph unicode="&#xc7;" d="M105 550v200h201v-200h-201zM105 771v202h201v-202h-201zM105 993v201h201v-201h-201zM105 1214v202h201v-202h-201zM326 328v202h202v-202h-202zM326 1437v201h202v-201h-202zM549 107v200h201v-200h-201zM549 328v202h200v-202h-200zM549 1437v201h200v-201h-200z M769 328v202h202v-202h-202zM769 1437v201h202v-201h-202zM992 550v202h202v-202h-202zM992 1214v202h202v-202h-202z" />
<glyph unicode="&#xc8;" d="M105 107v200h201v-200h-201zM105 328v200h201v-200h-201zM105 549v201h201v-201h-201zM105 771v202h201v-202h-201zM105 992v202h201v-202h-201zM326 107v200h202v-200h-202zM326 549v201h202v-201h-202zM326 993v201h202v-201h-202zM326 1437v201h202v-201h-202z M549 107v200h200v-200h-200zM549 550v202h200v-202h-200zM549 993v201h200v-201h-200zM549 1214v202h200v-202h-200zM769 107v200h202v-200h-202zM769 550v202h202v-202h-202zM769 993v202h202v-202h-202zM992 107v200h202v-200h-202zM992 993v202h202v-202h-202z" />
<glyph unicode="&#xc9;" d="M105 107v200h201v-200h-201zM105 328v200h201v-200h-201zM105 549v201h201v-201h-201zM105 771v202h201v-202h-201zM105 992v202h201v-202h-201zM326 107v200h202v-200h-202zM326 549v201h202v-201h-202zM326 993v201h202v-201h-202zM549 107v200h200v-200h-200zM549 550 v202h200v-202h-200zM549 993v201h200v-201h-200zM549 1214v202h200v-202h-200zM769 107v200h202v-200h-202zM769 550v202h202v-202h-202zM769 993v202h202v-202h-202zM769 1437v201h202v-201h-202zM992 107v200h202v-200h-202zM992 993v202h202v-202h-202z" />
<glyph unicode="&#xca;" d="M105 107v200h201v-200h-201zM105 328v200h201v-200h-201zM105 549v201h201v-201h-201zM105 771v202h201v-202h-201zM105 992v202h201v-202h-201zM326 107v200h202v-200h-202zM326 549v201h202v-201h-202zM326 993v201h202v-201h-202zM326 1214v202h202v-202h-202z M549 107v200h200v-200h-200zM549 550v202h200v-202h-200zM549 993v201h200v-201h-200zM549 1437v201h200v-201h-200zM769 107v200h202v-200h-202zM769 550v202h202v-202h-202zM769 993v202h202v-202h-202zM769 1214v202h202v-202h-202zM992 107v200h202v-200h-202zM992 993 v202h202v-202h-202z" />
<glyph unicode="&#xcb;" d="M105 107v200h201v-200h-201zM105 328v200h201v-200h-201zM105 549v201h201v-201h-201zM105 771v202h201v-202h-201zM105 992v202h201v-202h-201zM326 107v200h202v-200h-202zM326 549v201h202v-201h-202zM326 993v201h202v-201h-202zM326 1437v201h202v-201h-202z M549 107v200h200v-200h-200zM549 550v202h200v-202h-200zM549 993v201h200v-201h-200zM769 107v200h202v-200h-202zM769 550v202h202v-202h-202zM769 993v202h202v-202h-202zM769 1437v201h202v-201h-202zM992 107v200h202v-200h-202zM992 993v202h202v-202h-202z" />
<glyph unicode="&#xcc;" d="M328 107v200h200v-200h-200zM328 993v201h200v-201h-200zM328 1437v201h200v-201h-200zM549 107v200h201v-200h-201zM549 328v202h201v-202h-201zM549 550v202h201v-202h-201zM549 771v202h200v-202h-200zM549 993v201h200v-201h-200zM549 1214v202h200v-202h-200z M769 993v202h202v-202h-202zM771 107v200h200v-200h-200z" />
<glyph unicode="&#xcd;" d="M328 107v200h200v-200h-200zM328 993v201h200v-201h-200zM549 107v200h201v-200h-201zM549 328v202h201v-202h-201zM549 550v202h200v-202h-200zM549 771v202h200v-202h-200zM549 993v201h200v-201h-200zM549 1214v202h200v-202h-200zM769 993v202h202v-202h-202z M769 1437v201h202v-201h-202zM771 107v200h200v-200h-200z" />
<glyph unicode="&#xce;" d="M328 107v200h200v-200h-200zM328 993v201h200v-201h-200zM328 1214v202h200v-202h-200zM549 107v200h201v-200h-201zM549 328v202h201v-202h-201zM549 550v202h200v-202h-200zM549 771v202h200v-202h-200zM549 993v201h200v-201h-200zM549 1437v201h200v-201h-200z M769 993v202h202v-202h-202zM769 1214v202h202v-202h-202zM771 107v200h200v-200h-200z" />
<glyph unicode="&#xcf;" d="M328 107v200h200v-200h-200zM328 993v201h200v-201h-200zM328 1437v201h200v-201h-200zM549 107v200h201v-200h-201zM549 328v202h201v-202h-201zM549 550v202h200v-202h-200zM549 771v202h200v-202h-200zM549 993v201h200v-201h-200zM769 993v202h202v-202h-202z M769 1437v201h202v-201h-202zM771 107v200h200v-200h-200z" />
<glyph unicode="&#xd0;" d="M105 771v202h201v-202h-201zM326 107v200h202v-200h-202zM326 328v202h202v-202h-202zM326 549v201h202v-201h-202zM326 771v202h202v-202h-202zM326 993v201h202v-201h-202zM326 1214v202h202v-202h-202zM326 1435v203h202v-203h-202zM549 107v200h200v-200h-200z M549 771v202h200v-202h-200zM549 1437v201h200v-201h-200zM769 107v200h202v-200h-202zM769 1437v201h202v-201h-202zM992 328v202h202v-202h-202zM992 550v202h202v-202h-202zM992 771v202h202v-202h-202zM992 993v202h202v-202h-202zM992 1214v202h202v-202h-202z" />
<glyph unicode="&#xd1;" d="M105 107v200h201v-200h-201zM105 328v202h201v-202h-201zM105 549v201h201v-201h-201zM105 771v202h201v-202h-201zM105 993v201h201v-201h-201zM326 771v202h202v-202h-202zM326 1437v201h202v-201h-202zM549 550v202h200v-202h-200zM549 1437v201h200v-201h-200z M769 328v202h202v-202h-202zM769 1437v201h202v-201h-202zM992 107v200h202v-200h-202zM992 328v202h202v-202h-202zM992 550v202h202v-202h-202zM992 771v202h202v-202h-202zM992 993v202h202v-202h-202z" />
<glyph unicode="&#xd2;" d="M105 328v202h201v-202h-201zM105 549v201h201v-201h-201zM105 771v202h201v-202h-201zM326 107v200h202v-200h-202zM326 993v201h202v-201h-202zM326 1437v201h202v-201h-202zM549 107v200h200v-200h-200zM549 993v201h200v-201h-200zM549 1214v202h200v-202h-200z M769 107v200h202v-200h-202zM769 993v202h202v-202h-202zM992 328v202h202v-202h-202zM992 550v202h202v-202h-202zM992 771v202h202v-202h-202z" />
<glyph unicode="&#xd3;" d="M105 328v202h201v-202h-201zM105 549v201h201v-201h-201zM105 771v202h201v-202h-201zM326 107v200h202v-200h-202zM326 993v201h202v-201h-202zM549 107v200h200v-200h-200zM549 993v201h200v-201h-200zM549 1214v202h200v-202h-200zM769 107v200h202v-200h-202z M769 993v202h202v-202h-202zM769 1437v201h202v-201h-202zM992 328v202h202v-202h-202zM992 550v202h202v-202h-202zM992 771v202h202v-202h-202z" />
<glyph unicode="&#xd4;" d="M105 328v202h201v-202h-201zM105 549v201h201v-201h-201zM105 771v202h201v-202h-201zM326 107v200h202v-200h-202zM326 993v201h202v-201h-202zM326 1214v202h202v-202h-202zM549 107v200h200v-200h-200zM549 993v201h200v-201h-200zM549 1437v201h200v-201h-200z M769 107v200h202v-200h-202zM769 993v202h202v-202h-202zM769 1214v202h202v-202h-202zM992 328v202h202v-202h-202zM992 550v202h202v-202h-202zM992 771v202h202v-202h-202z" />
<glyph unicode="&#xd5;" d="M105 328v202h201v-202h-201zM105 549v201h201v-201h-201zM105 771v202h201v-202h-201zM105 1214v202h201v-202h-201zM326 107v200h202v-200h-202zM326 993v201h202v-201h-202zM326 1437v201h202v-201h-202zM549 107v200h200v-200h-200zM549 993v201h200v-201h-200z M549 1214v202h200v-202h-200zM769 107v200h202v-200h-202zM769 993v202h202v-202h-202zM769 1437v201h202v-201h-202zM992 328v202h202v-202h-202zM992 550v202h202v-202h-202zM992 771v202h202v-202h-202z" />
<glyph unicode="&#xd6;" d="M105 328v202h201v-202h-201zM105 549v201h201v-201h-201zM105 771v202h201v-202h-201zM105 993v201h201v-201h-201zM326 107v200h202v-200h-202zM326 1214v202h202v-202h-202zM326 1437v201h202v-201h-202zM549 107v200h200v-200h-200zM549 1214v202h200v-202h-200z M769 107v200h202v-200h-202zM769 1214v202h202v-202h-202zM769 1437v201h202v-201h-202zM992 328v202h202v-202h-202zM992 550v202h202v-202h-202zM992 771v202h202v-202h-202zM992 993v202h202v-202h-202z" />
<glyph unicode="&#xd7;" d="M105 328v202h202v-202h-202zM105 1214v204h202v-204h-202zM326 550v202h202v-202h-202zM326 993v201h202v-201h-202zM549 771v202h201v-202h-201zM769 550v202h202v-202h-202zM769 993v202h202v-202h-202zM992 328v202h202v-202h-202zM992 1214v204h202v-204h-202z" />
<glyph unicode="&#xd8;" d="M105 107v200h201v-200h-201zM105 549v201h201v-201h-201zM105 771v202h201v-202h-201zM105 992v202h201v-202h-201zM105 1214v202h201v-202h-201zM326 328v202h202v-202h-202zM326 1437v201h202v-201h-202zM549 107v200h200v-200h-200zM549 550v200h200v-200h-200z M549 771v202h200v-202h-200zM549 993v201h200v-201h-200zM549 1437v201h200v-201h-200zM769 107v200h202v-200h-202zM769 1214v202h202v-202h-202zM992 328v202h202v-202h-202zM992 550v202h202v-202h-202zM992 771v202h202v-202h-202zM992 993v202h202v-202h-202zM992 1437 v201h202v-201h-202z" />
<glyph unicode="&#xd9;" d="M105 328v202h201v-202h-201zM105 549v201h201v-201h-201zM105 771v202h201v-202h-201zM105 993v201h201v-201h-201zM326 107v200h202v-200h-202zM326 1437v201h202v-201h-202zM549 107v200h200v-200h-200zM549 1214v202h200v-202h-200zM769 107v200h202v-200h-202z M992 328v202h202v-202h-202zM992 550v202h202v-202h-202zM992 771v202h202v-202h-202zM992 993v202h202v-202h-202z" />
<glyph unicode="&#xda;" d="M105 328v202h201v-202h-201zM105 549v201h201v-201h-201zM105 771v202h201v-202h-201zM105 993v201h201v-201h-201zM326 107v200h202v-200h-202zM549 107v200h200v-200h-200zM549 1214v202h200v-202h-200zM769 107v200h202v-200h-202zM769 1437v201h202v-201h-202z M992 328v202h202v-202h-202zM992 550v202h202v-202h-202zM992 771v202h202v-202h-202zM992 993v202h202v-202h-202z" />
<glyph unicode="&#xdb;" d="M105 328v202h201v-202h-201zM105 549v201h201v-201h-201zM105 771v202h201v-202h-201zM326 107v200h202v-200h-202zM326 1214v202h202v-202h-202zM549 107v200h200v-200h-200zM549 1437v201h200v-201h-200zM769 107v200h202v-200h-202zM769 1214v202h202v-202h-202z M992 328v202h202v-202h-202zM992 550v202h202v-202h-202zM992 771v202h202v-202h-202z" />
<glyph unicode="&#xdc;" d="M105 328v202h201v-202h-201zM105 549v201h201v-201h-201zM105 771v202h201v-202h-201zM105 993v201h201v-201h-201zM326 107v200h202v-200h-202zM326 1437v201h202v-201h-202zM549 107v200h200v-200h-200zM769 107v200h202v-200h-202zM769 1437v201h202v-201h-202z M992 328v202h202v-202h-202zM992 550v202h202v-202h-202zM992 771v202h202v-202h-202zM992 993v202h202v-202h-202z" />
<glyph unicode="&#xdd;" d="M105 993v201h202v-201h-202zM326 771v202h202v-202h-202zM549 107v200h201v-200h-201zM549 328v202h201v-202h-201zM549 550v202h200v-202h-200zM549 1214v202h200v-202h-200zM769 771v202h202v-202h-202zM769 1437v201h202v-201h-202zM992 993v202h202v-202h-202z" />
<glyph unicode="&#xde;" d="M105 107v200h202v-200h-202zM105 328v202h202v-202h-202zM105 550v202h202v-202h-202zM105 771v202h202v-202h-202zM105 993v201h201v-201h-201zM105 1214v202h201v-202h-201zM105 1437v201h201v-201h-201zM326 550v202h202v-202h-202zM326 993v202h202v-202h-202z M549 550v202h201v-202h-201zM549 993v202h201v-202h-201zM771 771v202h200v-202h-200z" />
<glyph unicode="&#xdf;" d="M105 107v200h201v-200h-201zM105 328v202h201v-202h-201zM105 549v201h201v-201h-201zM105 771v202h201v-202h-201zM105 993v201h201v-201h-201zM326 328v202h202v-202h-202zM326 771v202h202v-202h-202zM326 1214v204h202v-204h-202zM549 328v202h200v-202h-200z M549 771v202h200v-202h-200zM549 1214v204h200v-204h-200zM769 328v202h202v-202h-202zM769 771v202h202v-202h-202zM769 1214v204h202v-204h-202zM992 550v202h202v-202h-202zM992 993v202h202v-202h-202z" />
<glyph unicode="&#xe0;" d="M105 328v200h201v-200h-201zM326 107v200h202v-200h-202zM326 549v201h202v-201h-202zM326 993v201h202v-201h-202zM326 1435v203h202v-203h-202zM549 107v200h200v-200h-200zM549 550v200h200v-200h-200zM549 993v201h200v-201h-200zM549 1214v202h200v-202h-200z M769 107v200h202v-200h-202zM769 550v202h202v-202h-202zM769 993v201h202v-201h-202zM992 107v200h202v-200h-202zM992 328v202h202v-202h-202zM992 550v202h202v-202h-202zM992 771v202h202v-202h-202z" />
<glyph unicode="&#xe1;" d="M105 328v200h201v-200h-201zM326 107v200h202v-200h-202zM326 549v201h202v-201h-202zM326 993v201h202v-201h-202zM549 107v200h200v-200h-200zM549 549v201h200v-201h-200zM549 993v201h200v-201h-200zM549 1214v202h200v-202h-200zM769 107v200h202v-200h-202z M769 550v202h202v-202h-202zM769 993v201h202v-201h-202zM769 1437v201h202v-201h-202zM992 107v200h202v-200h-202zM992 328v202h202v-202h-202zM992 550v202h202v-202h-202zM992 771v202h202v-202h-202z" />
<glyph unicode="&#xe2;" d="M105 328v200h201v-200h-201zM326 107v200h202v-200h-202zM326 549v201h202v-201h-202zM326 993v201h202v-201h-202zM326 1214v202h202v-202h-202zM549 107v200h200v-200h-200zM549 549v201h200v-201h-200zM549 993v201h200v-201h-200zM549 1437v201h200v-201h-200z M769 107v200h202v-200h-202zM769 550v202h202v-202h-202zM769 993v201h202v-201h-202zM769 1214v202h202v-202h-202zM992 107v200h202v-200h-202zM992 328v202h202v-202h-202zM992 550v202h202v-202h-202zM992 771v202h202v-202h-202z" />
<glyph unicode="&#xe3;" d="M105 328v200h201v-200h-201zM105 1214v202h201v-202h-201zM326 107v200h202v-200h-202zM326 549v201h202v-201h-202zM326 993v201h202v-201h-202zM326 1435v203h202v-203h-202zM549 107v200h200v-200h-200zM549 549v201h200v-201h-200zM549 993v201h200v-201h-200z M549 1214v202h200v-202h-200zM769 107v200h202v-200h-202zM769 550v202h202v-202h-202zM769 993v201h202v-201h-202zM769 1437v201h202v-201h-202zM992 107v200h202v-200h-202zM992 328v202h202v-202h-202zM992 550v202h202v-202h-202zM992 771v202h202v-202h-202z" />
<glyph unicode="&#xe4;" d="M105 328v200h201v-200h-201zM326 107v200h202v-200h-202zM326 549v201h202v-201h-202zM326 993v201h202v-201h-202zM326 1435v203h202v-203h-202zM549 107v200h200v-200h-200zM549 549v201h200v-201h-200zM549 993v201h200v-201h-200zM769 107v200h202v-200h-202z M769 550v202h202v-202h-202zM769 993v201h202v-201h-202zM769 1437v201h202v-201h-202zM992 107v200h202v-200h-202zM992 328v202h202v-202h-202zM992 550v202h202v-202h-202zM992 771v202h202v-202h-202z" />
<glyph unicode="&#xe5;" d="M105 328v200h201v-200h-201zM326 105v202h202v-202h-202zM326 549v201h202v-201h-202zM326 992v202h202v-202h-202zM326 1214v202h202v-202h-202zM328 1437v201h200v-201h-200zM549 105v202h200v-202h-200zM549 549v201h200v-201h-200zM549 993v201h200v-201h-200z M549 1437v201h200v-201h-200zM769 105v202h202v-202h-202zM769 550v202h202v-202h-202zM769 993v201h202v-201h-202zM769 1214v202h202v-202h-202zM771 1437v201h202v-201h-202zM992 105v202h202v-202h-202zM992 328v202h202v-202h-202zM992 550v202h202v-202h-202zM992 771 v202h202v-202h-202z" />
<glyph unicode="&#xe6;" d="M105 107v200h201v-200h-201zM105 328v200h201v-200h-201zM105 549v201h201v-201h-201zM105 993v202h201v-202h-201zM326 107v200h202v-200h-202zM326 549v201h202v-201h-202zM326 993v202h202v-202h-202zM549 107v200h200v-200h-200zM549 328v202h200v-202h-200zM549 550 v200h200v-200h-200zM549 771v202h200v-202h-200zM769 107v200h202v-200h-202zM769 550v202h202v-202h-202zM769 993v202h202v-202h-202zM992 107v200h202v-200h-202zM992 550v202h202v-202h-202zM992 771v202h202v-202h-202z" />
<glyph unicode="&#xe7;" d="M105 771v202h201v-202h-201zM105 993v201h201v-201h-201zM105 1214v202h201v-202h-201zM326 107v200h202v-200h-202zM326 550v200h202v-200h-202zM326 1437v201h202v-201h-202zM549 107v200h201v-200h-201zM549 328v202h201v-202h-201zM549 550v202h200v-202h-200z M549 1437v201h200v-201h-200zM769 550v202h202v-202h-202zM769 1437v201h202v-201h-202zM992 771v202h202v-202h-202z" />
<glyph unicode="&#xe8;" d="M105 328v202h201v-202h-201zM105 549v201h201v-201h-201zM105 771v202h201v-202h-201zM326 107v200h202v-200h-202zM326 549v201h202v-201h-202zM326 993v201h202v-201h-202zM326 1437v201h202v-201h-202zM549 107v200h200v-200h-200zM549 550v202h200v-202h-200z M549 993v201h200v-201h-200zM549 1214v202h200v-202h-200zM769 107v200h202v-200h-202zM769 550v202h202v-202h-202zM769 993v202h202v-202h-202zM992 550v202h202v-202h-202zM992 771v202h202v-202h-202z" />
<glyph unicode="&#xe9;" d="M105 328v202h201v-202h-201zM105 549v201h201v-201h-201zM105 771v202h201v-202h-201zM326 107v200h202v-200h-202zM326 549v201h202v-201h-202zM326 993v201h202v-201h-202zM549 107v200h200v-200h-200zM549 550v202h200v-202h-200zM549 993v201h200v-201h-200z M549 1214v202h200v-202h-200zM769 107v200h202v-200h-202zM769 550v202h202v-202h-202zM769 993v202h202v-202h-202zM769 1437v201h202v-201h-202zM992 550v202h202v-202h-202zM992 771v202h202v-202h-202z" />
<glyph unicode="&#xea;" d="M105 328v200h201v-200h-201zM105 549v201h201v-201h-201zM105 771v202h201v-202h-201zM326 107v200h202v-200h-202zM326 549v201h202v-201h-202zM326 993v201h202v-201h-202zM326 1214v202h202v-202h-202zM549 107v200h200v-200h-200zM549 550v202h200v-202h-200z M549 993v201h200v-201h-200zM549 1437v201h200v-201h-200zM769 107v200h202v-200h-202zM769 550v202h202v-202h-202zM769 993v202h202v-202h-202zM769 1214v202h202v-202h-202zM992 550v202h202v-202h-202zM992 771v202h202v-202h-202z" />
<glyph unicode="&#xeb;" d="M105 328v202h201v-202h-201zM105 549v201h201v-201h-201zM105 771v202h201v-202h-201zM326 107v200h202v-200h-202zM326 549v201h202v-201h-202zM326 993v201h202v-201h-202zM326 1437v201h202v-201h-202zM549 107v200h200v-200h-200zM549 550v202h200v-202h-200z M549 993v201h200v-201h-200zM769 107v200h202v-200h-202zM769 550v202h202v-202h-202zM769 993v202h202v-202h-202zM769 1437v201h202v-201h-202zM992 550v202h202v-202h-202zM992 771v202h202v-202h-202z" />
<glyph unicode="&#xec;" d="M328 107v200h200v-200h-200zM328 993v201h200v-201h-200zM328 1437v201h200v-201h-200zM549 107v200h201v-200h-201zM549 328v202h201v-202h-201zM549 550v202h201v-202h-201zM549 771v202h201v-202h-201zM549 993v201h200v-201h-200zM549 1214v202h200v-202h-200z M771 107v200h200v-200h-200z" />
<glyph unicode="&#xed;" d="M328 107v200h200v-200h-200zM328 993v201h200v-201h-200zM549 107v200h201v-200h-201zM549 328v202h201v-202h-201zM549 550v202h201v-202h-201zM549 771v202h200v-202h-200zM549 993v201h200v-201h-200zM549 1214v202h200v-202h-200zM769 1437v201h202v-201h-202z M771 107v200h200v-200h-200z" />
<glyph unicode="&#xee;" d="M328 107v200h200v-200h-200zM328 993v201h200v-201h-200zM328 1214v202h200v-202h-200zM549 107v200h201v-200h-201zM549 328v202h201v-202h-201zM549 550v202h201v-202h-201zM549 771v202h200v-202h-200zM549 993v201h200v-201h-200zM549 1437v201h200v-201h-200z M769 1214v202h202v-202h-202zM771 107v200h200v-200h-200z" />
<glyph unicode="&#xef;" d="M328 107v200h200v-200h-200zM328 993v201h200v-201h-200zM328 1437v201h200v-201h-200zM549 107v200h201v-200h-201zM549 328v202h201v-202h-201zM549 550v202h201v-202h-201zM549 771v202h200v-202h-200zM549 993v201h200v-201h-200zM769 1437v201h202v-201h-202z M771 107v200h200v-200h-200z" />
<glyph unicode="&#xf0;" d="M105 328v202h201v-202h-201zM105 549v201h201v-201h-201zM326 107v200h202v-200h-202zM326 771v202h202v-202h-202zM549 107v200h200v-200h-200zM549 549v201h200v-201h-200zM549 1214v202h200v-202h-200zM769 107v200h202v-200h-202zM769 328v202h202v-202h-202z M769 550v202h202v-202h-202zM769 771v202h202v-202h-202zM769 993v201h202v-201h-202zM769 1214v202h202v-202h-202zM769 1437v201h202v-201h-202zM992 1216v200h202v-200h-202z" />
<glyph unicode="&#xf1;" d="M105 107v200h201v-200h-201zM105 328v202h201v-202h-201zM105 549v201h201v-201h-201zM105 771v202h201v-202h-201zM105 993v201h201v-201h-201zM326 771v202h202v-202h-202zM326 1437v201h202v-201h-202zM549 993v201h200v-201h-200zM549 1437v201h200v-201h-200z M769 993v202h202v-202h-202zM769 1437v201h202v-201h-202zM992 107v200h202v-200h-202zM992 328v202h202v-202h-202zM992 550v202h202v-202h-202zM992 771v202h202v-202h-202z" />
<glyph unicode="&#xf2;" d="M105 328v202h201v-202h-201zM105 549v201h201v-201h-201zM326 107v200h202v-200h-202zM326 771v202h202v-202h-202zM326 1437v201h202v-201h-202zM549 107v200h201v-200h-201zM549 771v202h200v-202h-200zM549 1214v202h200v-202h-200zM769 107v200h202v-200h-202z M769 771v202h202v-202h-202zM992 328v202h202v-202h-202zM992 550v202h202v-202h-202z" />
<glyph unicode="&#xf3;" d="M105 328v202h201v-202h-201zM105 549v201h201v-201h-201zM326 107v200h202v-200h-202zM326 771v202h202v-202h-202zM549 107v200h200v-200h-200zM549 771v202h200v-202h-200zM549 1214v202h200v-202h-200zM769 107v200h202v-200h-202zM769 771v202h202v-202h-202z M769 1437v201h202v-201h-202zM992 328v202h202v-202h-202zM992 550v202h202v-202h-202z" />
<glyph unicode="&#xf4;" d="M105 328v202h201v-202h-201zM105 549v201h201v-201h-201zM326 107v200h202v-200h-202zM326 771v202h202v-202h-202zM326 1214v202h202v-202h-202zM549 107v200h200v-200h-200zM549 771v202h200v-202h-200zM549 1437v201h200v-201h-200zM769 107v200h202v-200h-202z M769 771v202h202v-202h-202zM769 1214v202h202v-202h-202zM992 328v202h202v-202h-202zM992 550v202h202v-202h-202z" />
<glyph unicode="&#xf5;" d="M105 328v202h201v-202h-201zM105 549v201h201v-201h-201zM105 1214v202h201v-202h-201zM326 107v200h202v-200h-202zM326 771v202h202v-202h-202zM326 1437v201h202v-201h-202zM549 107v200h200v-200h-200zM549 771v202h200v-202h-200zM549 1214v202h200v-202h-200z M769 107v200h202v-200h-202zM769 771v202h202v-202h-202zM769 1437v201h202v-201h-202zM992 328v202h202v-202h-202zM992 550v202h202v-202h-202z" />
<glyph unicode="&#xf6;" d="M105 328v202h201v-202h-201zM105 549v201h201v-201h-201zM105 771v202h201v-202h-201zM326 107v200h202v-200h-202zM326 993v201h202v-201h-202zM326 1437v201h202v-201h-202zM549 107v200h200v-200h-200zM549 993v201h200v-201h-200zM769 107v200h202v-200h-202z M769 993v202h202v-202h-202zM769 1437v201h202v-201h-202zM992 328v202h202v-202h-202zM992 550v202h202v-202h-202zM992 771v202h202v-202h-202z" />
<glyph unicode="&#xf7;" d="M105 771v202h202v-202h-202zM326 771v202h202v-202h-202zM549 328v202h201v-202h-201zM549 771v202h201v-202h-201zM549 1214v204h201v-204h-201zM769 771v202h202v-202h-202zM992 771v202h202v-202h-202z" />
<glyph unicode="&#xf8;" d="M105 107v200h201v-200h-201zM105 549v201h201v-201h-201zM105 771v202h201v-202h-201zM326 328v202h202v-202h-202zM326 993v202h202v-202h-202zM549 107v200h200v-200h-200zM549 550v202h200v-202h-200zM549 993v202h200v-202h-200zM769 107v200h202v-200h-202zM769 771 v202h202v-202h-202zM992 328v202h202v-202h-202zM992 550v202h202v-202h-202zM992 993v202h202v-202h-202z" />
<glyph unicode="&#xf9;" d="M105 328v202h201v-202h-201zM105 549v201h201v-201h-201zM105 771v202h201v-202h-201zM105 993v201h201v-201h-201zM326 107v200h202v-200h-202zM326 1437v201h202v-201h-202zM549 107v200h200v-200h-200zM549 1214v202h200v-202h-200zM769 328v202h202v-202h-202z M992 107v200h202v-200h-202zM992 328v202h202v-202h-202zM992 550v202h202v-202h-202zM992 771v202h202v-202h-202zM992 993v202h202v-202h-202z" />
<glyph unicode="&#xfa;" d="M105 328v202h201v-202h-201zM105 549v201h201v-201h-201zM105 771v202h201v-202h-201zM105 993v201h201v-201h-201zM326 107v200h202v-200h-202zM549 107v200h200v-200h-200zM549 1214v202h200v-202h-200zM769 328v202h202v-202h-202zM769 1437v201h202v-201h-202z M992 107v200h202v-200h-202zM992 328v202h202v-202h-202zM992 550v202h202v-202h-202zM992 771v202h202v-202h-202zM992 993v202h202v-202h-202z" />
<glyph unicode="&#xfb;" d="M105 328v202h201v-202h-201zM105 549v201h201v-201h-201zM105 771v202h201v-202h-201zM326 107v200h202v-200h-202zM326 1214v202h202v-202h-202zM549 107v200h200v-200h-200zM549 1437v201h200v-201h-200zM769 328v202h202v-202h-202zM769 1214v202h202v-202h-202z M992 107v200h202v-200h-202zM992 328v202h202v-202h-202zM992 550v202h202v-202h-202zM992 771v202h202v-202h-202z" />
<glyph unicode="&#xfc;" d="M105 328v202h201v-202h-201zM105 549v201h201v-201h-201zM105 771v202h201v-202h-201zM105 993v201h201v-201h-201zM326 107v200h202v-200h-202zM326 1437v201h202v-201h-202zM549 107v200h200v-200h-200zM769 328v202h202v-202h-202zM769 1437v201h202v-201h-202z M992 107v200h202v-200h-202zM992 328v202h202v-202h-202zM992 550v202h202v-202h-202zM992 771v202h202v-202h-202zM992 993v202h202v-202h-202z" />
<glyph unicode="&#xfd;" d="M105 771v202h201v-202h-201zM105 993v201h201v-201h-201zM326 107v200h202v-200h-202zM326 549v201h202v-201h-202zM549 107v200h200v-200h-200zM549 550v200h200v-200h-200zM549 1214v202h200v-202h-200zM769 107v200h202v-200h-202zM769 550v202h202v-202h-202z M769 1437v201h202v-201h-202zM992 328v202h202v-202h-202zM992 550v202h202v-202h-202zM992 771v202h202v-202h-202zM992 993v202h202v-202h-202z" />
<glyph unicode="&#xfe;" d="M105 107v200h202v-200h-202zM105 328v202h202v-202h-202zM105 550v200h201v-200h-201zM105 771v202h201v-202h-201zM105 993v201h201v-201h-201zM105 1214v202h201v-202h-201zM105 1437v201h201v-201h-201zM326 328v202h202v-202h-202zM326 1214v202h202v-202h-202z M549 328v202h201v-202h-201zM549 1214v202h201v-202h-201zM769 771v202h202v-202h-202zM769 993v202h202v-202h-202zM771 550v202h200v-202h-200z" />
<glyph unicode="&#xff;" d="M105 771v202h201v-202h-201zM105 993v201h201v-201h-201zM326 107v200h202v-200h-202zM326 549v201h202v-201h-202zM326 1437v201h202v-201h-202zM549 107v200h200v-200h-200zM549 550v200h200v-200h-200zM769 107v200h202v-200h-202zM769 550v202h202v-202h-202z M769 1437v201h202v-201h-202zM992 328v202h202v-202h-202zM992 550v202h202v-202h-202zM992 771v202h202v-202h-202zM992 993v202h202v-202h-202z" />
<glyph unicode="&#x2000;" horiz-adv-x="824" />
<glyph unicode="&#x2001;" horiz-adv-x="1649" />
<glyph unicode="&#x2002;" horiz-adv-x="824" />
<glyph unicode="&#x2003;" horiz-adv-x="1649" />
<glyph unicode="&#x2004;" horiz-adv-x="549" />
<glyph unicode="&#x2005;" horiz-adv-x="412" />
<glyph unicode="&#x2006;" horiz-adv-x="274" />
<glyph unicode="&#x2007;" horiz-adv-x="274" />
<glyph unicode="&#x2008;" horiz-adv-x="206" />
<glyph unicode="&#x2009;" horiz-adv-x="329" />
<glyph unicode="&#x200a;" horiz-adv-x="91" />
<glyph unicode="&#x2010;" d="M98 775v199q3 18 18 18h1062q19 -3 19 -18v-199q0 -18 -19 -17h-1062q-18 0 -18 17z" />
<glyph unicode="&#x2011;" d="M98 775v199q3 18 18 18h1062q19 -3 19 -18v-199q0 -18 -19 -17h-1062q-18 0 -18 17z" />
<glyph unicode="&#x2012;" d="M98 775v199q3 18 18 18h1062q19 -3 19 -18v-199q0 -18 -19 -17h-1062q-18 0 -18 17z" />
<glyph unicode="&#x2013;" horiz-adv-x="1178" d="M98 775v199q3 18 17 18h989q18 -3 18 -18v-199q0 -18 -18 -17h-989q-17 0 -17 17z" />
<glyph unicode="&#x2014;" horiz-adv-x="2202" d="M98 775v199q6 18 34 18h1979q35 -3 35 -18v-199q0 -18 -35 -17h-1979q-34 0 -34 17z" />
<glyph unicode="&#x202f;" horiz-adv-x="329" />
<glyph unicode="&#x205f;" horiz-adv-x="412" />
<glyph unicode="&#x25fc;" horiz-adv-x="1199" d="M0 0v1200h1200v-1200h-1200z" />
</font>
</defs>
</svg>
